<svg xmlns="http://www.w3.org/2000/svg" width="675" height="296" viewBox="0 0 675 296" font-family="ui-monospace,SFMono-Regular,Menlo,Consolas,monospace" font-size="15">
<rect width="675" height="296" rx="12" fill="#16181d" stroke="#2a2e37" stroke-width="1"/>
<circle cx="26" cy="26" r="6.5" fill="#ff5f57"/>
<circle cx="48" cy="26" r="6.5" fill="#febc2e"/>
<circle cx="70" cy="26" r="6.5" fill="#28c840"/>
<text x="337.5" y="31" text-anchor="middle" fill="#6c7280" font-size="12.5">anatomy</text>
<text x="26.0" y="73" xml:space="preserve" fill="#5fd7ff" font-weight="700">claude-statusline</text>
<text x="179.5" y="73" xml:space="preserve" fill="#c8ccd4"> </text>
<text x="188.5" y="73" xml:space="preserve" fill="#585858">·</text>
<text x="197.6" y="73" xml:space="preserve" fill="#c8ccd4"> </text>
<text x="206.6" y="73" xml:space="preserve" fill="#afafff">main</text>
<text x="242.7" y="73" xml:space="preserve" fill="#c8ccd4"> </text>
<text x="251.8" y="73" xml:space="preserve" fill="#87ff87">+1</text>
<text x="269.8" y="73" xml:space="preserve" fill="#ff875f">~1</text>
<text x="287.9" y="73" xml:space="preserve" fill="#585858">?1</text>
<text x="305.9" y="73" xml:space="preserve" fill="#c8ccd4"> </text>
<text x="315.0" y="73" xml:space="preserve" fill="#87ff87">✓#42</text>
<path d="M 26.0 80 H 179.5" stroke="#7d8590" stroke-width="1" opacity="0.85"/>
<path d="M 102.8 80 V 85" stroke="#7d8590" stroke-width="1" opacity="0.85"/>
<circle cx="102.8" cy="94" r="8.5" fill="#232833" stroke="#7d8590" stroke-width="1"/>
<text x="102.8" y="98" text-anchor="middle" fill="#e6e9ef" font-size="10.5" font-family="system-ui,sans-serif">1</text>
<path d="M 206.6 80 H 242.7" stroke="#7d8590" stroke-width="1" opacity="0.85"/>
<path d="M 224.7 80 V 85" stroke="#7d8590" stroke-width="1" opacity="0.85"/>
<circle cx="224.7" cy="94" r="8.5" fill="#232833" stroke="#7d8590" stroke-width="1"/>
<text x="224.7" y="98" text-anchor="middle" fill="#e6e9ef" font-size="10.5" font-family="system-ui,sans-serif">2</text>
<path d="M 251.7 80 H 305.9" stroke="#7d8590" stroke-width="1" opacity="0.85"/>
<path d="M 278.8 80 V 85" stroke="#7d8590" stroke-width="1" opacity="0.85"/>
<circle cx="278.8" cy="94" r="8.5" fill="#232833" stroke="#7d8590" stroke-width="1"/>
<text x="278.8" y="98" text-anchor="middle" fill="#e6e9ef" font-size="10.5" font-family="system-ui,sans-serif">3</text>
<path d="M 315.0 80 H 351.1" stroke="#7d8590" stroke-width="1" opacity="0.85"/>
<path d="M 333.0 80 V 85" stroke="#7d8590" stroke-width="1" opacity="0.85"/>
<circle cx="333.0" cy="94" r="8.5" fill="#232833" stroke="#7d8590" stroke-width="1"/>
<text x="333.0" y="98" text-anchor="middle" fill="#e6e9ef" font-size="10.5" font-family="system-ui,sans-serif">4</text>
<text x="26.0" y="129" xml:space="preserve" fill="#ff87d7">Fable 5</text>
<text x="89.2" y="129" xml:space="preserve" fill="#c8ccd4"> </text>
<text x="98.2" y="129" xml:space="preserve" fill="#585858">·</text>
<text x="107.3" y="129" xml:space="preserve" fill="#c8ccd4"> </text>
<text x="116.3" y="129" xml:space="preserve" fill="#d7afff">xhigh</text>
<text x="161.4" y="129" xml:space="preserve" fill="#c8ccd4"> </text>
<text x="170.5" y="129" xml:space="preserve" fill="#585858">·</text>
<text x="179.5" y="129" xml:space="preserve" fill="#c8ccd4"> </text>
<text x="188.5" y="129" xml:space="preserve" fill="#87ff87">ctx:123K/350K (35%)</text>
<text x="360.1" y="129" xml:space="preserve" fill="#c8ccd4"> </text>
<text x="369.1" y="129" xml:space="preserve" fill="#585858">·</text>
<text x="378.2" y="129" xml:space="preserve" fill="#c8ccd4"> </text>
<text x="387.2" y="129" xml:space="preserve" fill="#d7af00">$3.72</text>
<text x="432.3" y="129" xml:space="preserve" fill="#c8ccd4"> </text>
<text x="441.4" y="129" xml:space="preserve" fill="#585858">·</text>
<text x="450.4" y="129" xml:space="preserve" fill="#c8ccd4"> </text>
<text x="459.4" y="129" xml:space="preserve" fill="#5fafaf">auth refactor</text>
<path d="M 26.0 136 H 89.2" stroke="#7d8590" stroke-width="1" opacity="0.85"/>
<path d="M 57.6 136 V 141" stroke="#7d8590" stroke-width="1" opacity="0.85"/>
<circle cx="57.6" cy="150" r="8.5" fill="#232833" stroke="#7d8590" stroke-width="1"/>
<text x="57.6" y="154" text-anchor="middle" fill="#e6e9ef" font-size="10.5" font-family="system-ui,sans-serif">5</text>
<path d="M 116.3 136 H 161.4" stroke="#7d8590" stroke-width="1" opacity="0.85"/>
<path d="M 138.9 136 V 141" stroke="#7d8590" stroke-width="1" opacity="0.85"/>
<circle cx="138.9" cy="150" r="8.5" fill="#232833" stroke="#7d8590" stroke-width="1"/>
<text x="138.9" y="154" text-anchor="middle" fill="#e6e9ef" font-size="10.5" font-family="system-ui,sans-serif">6</text>
<path d="M 188.5 136 H 360.1" stroke="#7d8590" stroke-width="1" opacity="0.85"/>
<path d="M 274.3 136 V 141" stroke="#7d8590" stroke-width="1" opacity="0.85"/>
<circle cx="274.3" cy="150" r="8.5" fill="#232833" stroke="#7d8590" stroke-width="1"/>
<text x="274.3" y="154" text-anchor="middle" fill="#e6e9ef" font-size="10.5" font-family="system-ui,sans-serif">7</text>
<path d="M 387.2 136 H 432.3" stroke="#7d8590" stroke-width="1" opacity="0.85"/>
<path d="M 409.8 136 V 141" stroke="#7d8590" stroke-width="1" opacity="0.85"/>
<circle cx="409.8" cy="150" r="8.5" fill="#232833" stroke="#7d8590" stroke-width="1"/>
<text x="409.8" y="154" text-anchor="middle" fill="#e6e9ef" font-size="10.5" font-family="system-ui,sans-serif">8</text>
<path d="M 459.4 136 H 576.8" stroke="#7d8590" stroke-width="1" opacity="0.85"/>
<path d="M 518.1 136 V 141" stroke="#7d8590" stroke-width="1" opacity="0.85"/>
<circle cx="518.1" cy="150" r="8.5" fill="#232833" stroke="#7d8590" stroke-width="1"/>
<text x="518.1" y="154" text-anchor="middle" fill="#e6e9ef" font-size="10.5" font-family="system-ui,sans-serif">9</text>
<text x="26.0" y="185" xml:space="preserve" fill="#5fafaf">5h 43%</text>
<text x="80.2" y="185" xml:space="preserve" fill="#c8ccd4"> </text>
<text x="89.2" y="185" xml:space="preserve" fill="#585858">↻21:37</text>
<text x="143.4" y="185" xml:space="preserve" fill="#c8ccd4"> </text>
<text x="152.4" y="185" xml:space="preserve" fill="#5fafaf">7d 8%</text>
<text x="197.6" y="185" xml:space="preserve" fill="#c8ccd4"> </text>
<text x="206.6" y="185" xml:space="preserve" fill="#585858">↻Tue</text>
<text x="242.7" y="185" xml:space="preserve" fill="#c8ccd4"> </text>
<text x="251.8" y="185" xml:space="preserve" fill="#585858">·</text>
<text x="260.8" y="185" xml:space="preserve" fill="#c8ccd4"> </text>
<text x="269.8" y="185" xml:space="preserve" fill="#585858">tok:</text>
<text x="305.9" y="185" xml:space="preserve" fill="#87afff">2.4M</text>
<text x="342.0" y="185" xml:space="preserve" fill="#c8ccd4"> </text>
<text x="351.1" y="185" xml:space="preserve" fill="#585858">·</text>
<text x="360.1" y="185" xml:space="preserve" fill="#c8ccd4"> </text>
<text x="369.1" y="185" xml:space="preserve" fill="#585858">perf: cache git status per repo</text>
<path d="M 26.0 192 H 242.7" stroke="#7d8590" stroke-width="1" opacity="0.85"/>
<path d="M 134.4 192 V 197" stroke="#7d8590" stroke-width="1" opacity="0.85"/>
<circle cx="134.4" cy="206" r="8.5" fill="#232833" stroke="#7d8590" stroke-width="1"/>
<text x="134.4" y="210" text-anchor="middle" fill="#e6e9ef" font-size="10.5" font-family="system-ui,sans-serif">10</text>
<path d="M 269.8 192 H 342.0" stroke="#7d8590" stroke-width="1" opacity="0.85"/>
<path d="M 305.9 192 V 197" stroke="#7d8590" stroke-width="1" opacity="0.85"/>
<circle cx="305.9" cy="206" r="8.5" fill="#232833" stroke="#7d8590" stroke-width="1"/>
<text x="305.9" y="210" text-anchor="middle" fill="#e6e9ef" font-size="10.5" font-family="system-ui,sans-serif">11</text>
<path d="M 369.1 192 H 649.1" stroke="#7d8590" stroke-width="1" opacity="0.85"/>
<path d="M 509.1 192 V 197" stroke="#7d8590" stroke-width="1" opacity="0.85"/>
<circle cx="509.1" cy="206" r="8.5" fill="#232833" stroke="#7d8590" stroke-width="1"/>
<text x="509.1" y="210" text-anchor="middle" fill="#e6e9ef" font-size="10.5" font-family="system-ui,sans-serif">12</text>
<text x="26.0" y="241" xml:space="preserve" fill="#585858">mcp:</text>
<text x="62.1" y="241" xml:space="preserve" fill="#87afff">2</text>
<text x="71.1" y="241" xml:space="preserve" fill="#c8ccd4"> </text>
<text x="80.2" y="241" xml:space="preserve" fill="#585858">·</text>
<text x="89.2" y="241" xml:space="preserve" fill="#c8ccd4"> </text>
<text x="98.2" y="241" xml:space="preserve" fill="#585858">skills:</text>
<text x="161.4" y="241" xml:space="preserve" fill="#afafff">12</text>
<text x="179.5" y="241" xml:space="preserve" fill="#c8ccd4"> </text>
<text x="188.5" y="241" xml:space="preserve" fill="#585858">·</text>
<text x="197.6" y="241" xml:space="preserve" fill="#c8ccd4"> </text>
<text x="206.6" y="241" xml:space="preserve" fill="#585858">sessions:</text>
<text x="287.9" y="241" xml:space="preserve" fill="#5fafaf">3</text>
<path d="M 26.0 248 H 71.2" stroke="#7d8590" stroke-width="1" opacity="0.85"/>
<path d="M 48.6 248 V 253" stroke="#7d8590" stroke-width="1" opacity="0.85"/>
<circle cx="48.6" cy="262" r="8.5" fill="#232833" stroke="#7d8590" stroke-width="1"/>
<text x="48.6" y="266" text-anchor="middle" fill="#e6e9ef" font-size="10.5" font-family="system-ui,sans-serif">13</text>
<path d="M 98.2 248 H 179.5" stroke="#7d8590" stroke-width="1" opacity="0.85"/>
<path d="M 138.9 248 V 253" stroke="#7d8590" stroke-width="1" opacity="0.85"/>
<circle cx="138.9" cy="262" r="8.5" fill="#232833" stroke="#7d8590" stroke-width="1"/>
<text x="138.9" y="266" text-anchor="middle" fill="#e6e9ef" font-size="10.5" font-family="system-ui,sans-serif">14</text>
<path d="M 206.6 248 H 296.9" stroke="#7d8590" stroke-width="1" opacity="0.85"/>
<path d="M 251.8 248 V 253" stroke="#7d8590" stroke-width="1" opacity="0.85"/>
<circle cx="251.8" cy="262" r="8.5" fill="#232833" stroke="#7d8590" stroke-width="1"/>
<text x="251.8" y="266" text-anchor="middle" fill="#e6e9ef" font-size="10.5" font-family="system-ui,sans-serif">15</text>
</svg>